<svg width="360" height="258" viewBox="0 0 360 258" fill="none" xmlns="http://www.w3.org/2000/svg">
<path d="M340 62C215 232 90 192 20 122C90 62 215 22 340 187" stroke="#E0E0E0" stroke-width="12" stroke-linecap="round"/>
<path d="M170.847 33.7301V31.5284C172.823 31.5284 174.202 31.1141 174.984 30.2855C175.777 29.4569 176.173 28.072 176.173 26.1307V20.4489C176.173 18.8153 176.327 17.4008 176.635 16.2053C176.955 15.0097 177.469 14.0213 178.18 13.2401C178.89 12.4588 179.837 11.8788 181.021 11.5C182.204 11.1212 183.666 10.9318 185.406 10.9318V14.4119C184.033 14.4119 182.95 14.625 182.157 15.0511C181.376 15.4773 180.819 16.1402 180.488 17.0398C180.168 17.9276 180.009 19.0639 180.009 20.4489V27.5511C180.009 28.4744 179.884 29.3149 179.636 30.0724C179.399 30.83 178.955 31.4811 178.304 32.0256C177.653 32.5701 176.724 32.9903 175.516 33.2862C174.321 33.5821 172.764 33.7301 170.847 33.7301ZM185.406 56.3864C183.666 56.3864 182.204 56.197 181.021 55.8182C179.837 55.4394 178.89 54.8594 178.18 54.0781C177.469 53.2969 176.955 52.3085 176.635 51.1129C176.327 49.9174 176.173 48.5028 176.173 46.8693V41.1875C176.173 39.2462 175.777 37.8613 174.984 37.0327C174.202 36.2041 172.823 35.7898 170.847 35.7898V33.5881C172.764 33.5881 174.321 33.736 175.516 34.032C176.724 34.3279 177.653 34.7481 178.304 35.2926C178.955 35.8371 179.399 36.4882 179.636 37.2457C179.884 38.0033 180.009 38.8437 180.009 39.767V46.8693C180.009 48.2543 180.168 49.3906 180.488 50.2784C180.819 51.1662 181.376 51.8232 182.157 52.2493C182.95 52.6873 184.033 52.9062 185.406 52.9062V56.3864ZM170.847 35.7898V31.5284H175.037V35.7898H170.847ZM195.922 12.6364V49H191.519V12.6364H195.922ZM206.882 12.6364L216.257 27.7642H216.541L225.916 12.6364H231.1L219.666 30.8182L231.1 49H225.916L216.541 34.1562H216.257L206.882 49H201.697L213.416 30.8182L201.697 12.6364H206.882ZM258.546 28.8651V32.7713H243.205V28.8651H258.546ZM266.927 30.8182C266.927 34.6534 266.235 37.9678 264.85 40.7614C263.465 43.5549 261.565 45.7093 259.15 47.2244C256.735 48.7396 253.977 49.4972 250.876 49.4972C247.775 49.4972 245.017 48.7396 242.602 47.2244C240.187 45.7093 238.287 43.5549 236.902 40.7614C235.517 37.9678 234.825 34.6534 234.825 30.8182C234.825 26.983 235.517 23.6686 236.902 20.875C238.287 18.0814 240.187 15.9271 242.602 14.4119C245.017 12.8968 247.775 12.1392 250.876 12.1392C253.977 12.1392 256.735 12.8968 259.15 14.4119C261.565 15.9271 263.465 18.0814 264.85 20.875C266.235 23.6686 266.927 26.983 266.927 30.8182ZM262.666 30.8182C262.666 27.6695 262.139 25.0121 261.085 22.8459C260.044 20.6797 258.629 19.0402 256.842 17.9276C255.066 16.8149 253.078 16.2585 250.876 16.2585C248.674 16.2585 246.68 16.8149 244.892 17.9276C243.117 19.0402 241.702 20.6797 240.649 22.8459C239.607 25.0121 239.086 27.6695 239.086 30.8182C239.086 33.9669 239.607 36.6243 240.649 38.7905C241.702 40.9567 243.117 42.5961 244.892 43.7088C246.68 44.8215 248.674 45.3778 250.876 45.3778C253.078 45.3778 255.066 44.8215 256.842 43.7088C258.629 42.5961 260.044 40.9567 261.085 38.7905C262.139 36.6243 262.666 33.9669 262.666 30.8182ZM269.497 12.6364H274.54L284.625 29.6108H285.051L295.136 12.6364H300.179L287.04 34.0142V49H282.636V34.0142L269.497 12.6364ZM329.738 44.8807V49H306.726V44.8807H329.738ZM328.601 13.4176V17.5369H305.874V13.4176H328.601ZM321.712 31.0312V31.5284L307.792 49H304.738V45.3068L316.314 31.3153L304.738 17.1818V13.4176H307.792L321.712 31.0312ZM349.278 30.7472V32.9489C347.301 32.9489 345.916 33.3632 345.123 34.1918C344.342 35.0204 343.951 36.4053 343.951 38.3466V44.0284C343.951 45.6619 343.791 47.0765 343.472 48.272C343.164 49.4676 342.655 50.456 341.945 51.2372C341.235 52.0185 340.288 52.5985 339.104 52.9773C337.92 53.3561 336.458 53.5455 334.718 53.5455V50.0653C336.091 50.0653 337.169 49.8464 337.95 49.4084C338.743 48.9822 339.299 48.3253 339.619 47.4375C339.95 46.5497 340.116 45.4134 340.116 44.0284V36.9261C340.116 36.0028 340.234 35.1624 340.471 34.4048C340.72 33.6473 341.169 32.9962 341.82 32.4517C342.472 31.9072 343.395 31.487 344.59 31.1911C345.798 30.8951 347.36 30.7472 349.278 30.7472ZM334.718 8.09091C336.458 8.09091 337.92 8.2803 339.104 8.65909C340.288 9.03788 341.235 9.6179 341.945 10.3991C342.655 11.1804 343.164 12.1688 343.472 13.3643C343.791 14.5599 343.951 15.9744 343.951 17.608V23.2898C343.951 25.2311 344.342 26.616 345.123 27.4446C345.916 28.2732 347.301 28.6875 349.278 28.6875V30.8892C347.36 30.8892 345.798 30.7412 344.59 30.4453C343.395 30.1494 342.472 29.7292 341.82 29.1847C341.169 28.6402 340.72 27.9891 340.471 27.2315C340.234 26.474 340.116 25.6335 340.116 24.7102V17.608C340.116 16.223 339.95 15.0866 339.619 14.1989C339.299 13.2992 338.743 12.6364 337.95 12.2102C337.169 11.7841 336.091 11.571 334.718 11.571V8.09091ZM349.278 28.6875V32.9489H345.088V28.6875H349.278Z" fill="#E0E0E0"/>
<path d="M237.068 208.568C239.886 208.568 242.213 209.341 244.046 210.887C245.879 212.432 247.144 214.561 247.841 217.272C248.538 219.985 248.598 223.106 248.022 226.637C247.432 230.152 246.325 233.273 244.704 236C243.098 238.712 241.129 240.849 238.796 242.409C236.463 243.955 233.901 244.728 231.113 244.728C229.129 244.727 227.447 244.348 226.068 243.591C224.705 242.833 223.629 241.826 222.841 240.568C222.053 239.296 221.507 237.902 221.204 236.387H220.932L217.478 257.091H214.704L222.704 209.091H225.409L224.137 216.887H224.478C225.265 215.387 226.25 214.008 227.432 212.75C228.629 211.492 230.031 210.485 231.637 209.728C233.258 208.955 235.068 208.568 237.068 208.568ZM46.6875 199.728C44.9299 199.728 43.5435 200 42.5283 200.546C41.5285 201.091 40.8158 201.939 40.3916 203.091C39.9826 204.227 39.7784 205.682 39.7783 207.454V216.546C39.7783 217.727 39.6189 218.803 39.3008 219.772C38.9978 220.742 38.4299 221.576 37.5967 222.272C36.7633 222.969 35.5738 223.508 34.0283 223.887C33.8316 223.935 33.627 223.98 33.415 224.022V224.704C33.6271 224.747 33.8315 224.792 34.0283 224.841C35.5737 225.22 36.7634 225.757 37.5967 226.454C38.4299 227.151 38.9977 227.985 39.3008 228.954C39.6189 229.924 39.7783 231 39.7783 232.182V241.272C39.7783 243.045 39.9825 244.5 40.3916 245.637C40.8158 246.773 41.5284 247.614 42.5283 248.159C43.5435 248.72 44.9299 249 46.6875 249V253.454C44.4604 253.454 42.5893 253.212 41.0742 252.728C39.5591 252.243 38.3466 251.5 37.4375 250.5C36.5284 249.5 35.8691 248.234 35.46 246.704C35.0661 245.174 34.8691 243.363 34.8691 241.272V234C34.8691 231.515 34.3618 229.742 33.3467 228.682C32.3467 227.621 30.581 227.091 28.0508 227.091V221.637C30.5809 221.637 32.3466 221.106 33.3467 220.046C34.3618 218.985 34.8691 217.212 34.8691 214.728V207.454C34.8692 205.363 35.066 203.553 35.46 202.022C35.869 200.492 36.5285 199.227 37.4375 198.228C38.3466 197.228 39.5591 196.485 41.0742 196C42.5893 195.515 44.4604 195.272 46.6875 195.272V199.728ZM305.307 195.272C307.534 195.272 309.406 195.515 310.921 196C312.436 196.485 313.648 197.228 314.557 198.228C315.466 199.227 316.118 200.492 316.512 202.022C316.921 203.553 317.125 205.363 317.125 207.454V214.728C317.125 217.212 317.625 218.985 318.625 220.046C319.64 221.106 321.413 221.637 323.943 221.637V227.091C321.413 227.091 319.64 227.621 318.625 228.682C317.625 229.742 317.125 231.515 317.125 234V241.272C317.125 243.363 316.921 245.174 316.512 246.704C316.118 248.234 315.466 249.5 314.557 250.5C313.648 251.5 312.436 252.243 310.921 252.728C309.406 253.212 307.534 253.454 305.307 253.454V249C307.064 249 308.443 248.72 309.443 248.159C310.458 247.614 311.17 246.773 311.579 245.637C312.003 244.5 312.216 243.045 312.216 241.272V232.182C312.216 231 312.368 229.924 312.671 228.954C312.989 227.985 313.564 227.151 314.397 226.454C315.231 225.757 316.413 225.22 317.943 224.841C318.147 224.791 318.359 224.745 318.579 224.701V224.025C318.359 223.982 318.147 223.937 317.943 223.887C316.413 223.508 315.231 222.969 314.397 222.272C313.564 221.576 312.989 220.742 312.671 219.772C312.368 218.803 312.216 217.727 312.216 216.546V207.454C312.216 205.682 312.003 204.227 311.579 203.091C311.17 201.94 310.458 201.091 309.443 200.546C308.443 200 307.064 199.728 305.307 199.728V195.272ZM159.568 196.75C162.341 196.75 164.697 197.288 166.637 198.363C168.591 199.424 170.03 200.894 170.954 202.772C171.893 204.651 172.235 206.795 171.978 209.204H169.204C169.386 206.25 168.584 203.879 166.796 202.091C165.023 200.288 162.462 199.387 159.113 199.387C156.841 199.387 154.757 199.803 152.863 200.637C150.97 201.47 149.394 202.614 148.137 204.068C146.894 205.508 146.114 207.152 145.796 209C145.599 210.197 145.651 211.28 145.954 212.25C146.272 213.205 146.795 214.053 147.522 214.796C148.25 215.538 149.152 216.197 150.228 216.772C151.303 217.333 152.508 217.826 153.841 218.25L158.682 219.75C160.333 220.28 161.841 220.894 163.204 221.591C164.583 222.288 165.742 223.121 166.682 224.091C167.621 225.045 168.288 226.166 168.682 227.454C169.091 228.742 169.151 230.227 168.863 231.909C168.454 234.409 167.47 236.629 165.909 238.568C164.349 240.508 162.326 242.022 159.841 243.113C157.356 244.204 154.492 244.75 151.25 244.75C148.265 244.75 145.735 244.243 143.659 243.228C141.599 242.212 140.076 240.803 139.091 239C138.106 237.182 137.727 235.091 137.954 232.728H140.863C140.697 234.652 141.038 236.319 141.887 237.728C142.735 239.121 144 240.197 145.682 240.954C147.379 241.712 149.386 242.091 151.704 242.091C154.219 242.091 156.492 241.659 158.522 240.796C160.568 239.932 162.25 238.734 163.568 237.204C164.901 235.674 165.735 233.902 166.068 231.887C166.341 230.25 166.189 228.841 165.613 227.659C165.038 226.477 164.06 225.462 162.682 224.613C161.318 223.75 159.583 222.992 157.478 222.341L152.25 220.704C148.796 219.598 146.273 218.098 144.682 216.204C143.091 214.295 142.523 211.924 142.978 209.091C143.402 206.652 144.394 204.508 145.954 202.659C147.515 200.811 149.477 199.364 151.841 198.318C154.204 197.273 156.78 196.75 159.568 196.75ZM199.318 196.75C202.091 196.75 204.447 197.288 206.387 198.363C208.341 199.424 209.78 200.894 210.704 202.772C211.643 204.651 211.985 206.795 211.728 209.204H208.954C209.136 206.25 208.334 203.879 206.546 202.091C204.773 200.288 202.212 199.387 198.863 199.387C196.591 199.387 194.507 199.803 192.613 200.637C190.72 201.47 189.144 202.614 187.887 204.068C186.644 205.508 185.864 207.152 185.546 209C185.349 210.197 185.401 211.28 185.704 212.25C186.022 213.205 186.545 214.053 187.272 214.796C188 215.538 188.902 216.197 189.978 216.772C191.053 217.333 192.258 217.826 193.591 218.25L198.432 219.75C200.083 220.28 201.591 220.894 202.954 221.591C204.333 222.288 205.492 223.121 206.432 224.091C207.371 225.045 208.038 226.166 208.432 227.454C208.841 228.742 208.901 230.227 208.613 231.909C208.204 234.409 207.22 236.629 205.659 238.568C204.099 240.508 202.076 242.022 199.591 243.113C197.106 244.204 194.242 244.75 191 244.75C188.015 244.75 185.485 244.243 183.409 243.228C181.349 242.212 179.826 240.803 178.841 239C177.856 237.182 177.477 235.091 177.704 232.728H180.613C180.447 234.652 180.788 236.319 181.637 237.728C182.485 239.121 183.75 240.197 185.432 240.954C187.129 241.712 189.136 242.091 191.454 242.091C193.969 242.091 196.242 241.659 198.272 240.796C200.318 239.932 202 238.734 203.318 237.204C204.651 235.674 205.485 233.902 205.818 231.887C206.091 230.25 205.939 228.841 205.363 227.659C204.788 226.477 203.81 225.462 202.432 224.613C201.068 223.75 199.333 222.992 197.228 222.341L192 220.704C188.546 219.598 186.023 218.098 184.432 216.204C182.841 214.295 182.273 211.924 182.728 209.091C183.152 206.652 184.144 204.508 185.704 202.659C187.265 200.811 189.227 199.364 191.591 198.318C193.954 197.273 196.53 196.75 199.318 196.75ZM273.517 208.568C275.471 208.568 277.252 208.962 278.858 209.75C280.479 210.538 281.843 211.667 282.949 213.137C284.055 214.591 284.82 216.356 285.244 218.432C285.668 220.507 285.668 222.841 285.244 225.432L284.926 227.159H258.263C257.809 230.084 257.878 232.668 258.472 234.909C259.093 237.182 260.244 238.962 261.926 240.25C263.608 241.523 265.805 242.159 268.517 242.159C270.411 242.159 272.093 241.84 273.562 241.204C275.047 240.553 276.305 239.765 277.335 238.841C278.38 237.917 279.199 237.023 279.79 236.159L282.085 237.182C281.388 238.348 280.388 239.515 279.085 240.682C277.782 241.833 276.214 242.796 274.381 243.568C272.548 244.341 270.479 244.728 268.176 244.728C265.024 244.727 262.411 243.947 260.335 242.387C258.259 240.826 256.812 238.69 255.994 235.978C255.176 233.265 255.055 230.174 255.631 226.704C256.207 223.22 257.358 220.114 259.085 217.387C260.812 214.66 262.926 212.507 265.426 210.932C267.926 209.356 270.623 208.568 273.517 208.568ZM115.262 196.818C119.125 196.818 122.383 197.818 125.034 199.818C127.686 201.803 129.549 204.598 130.625 208.204C131.716 211.795 131.852 216.008 131.034 220.841C130.246 225.629 128.731 229.811 126.488 233.387C124.246 236.947 121.488 239.712 118.216 241.682C114.958 243.651 111.405 244.637 107.557 244.637C103.618 244.637 100.322 243.636 97.6709 241.637C95.0346 239.637 93.1783 236.833 92.1025 233.228C91.0419 229.621 90.8982 225.416 91.6709 220.613C92.4891 215.826 94.0194 211.651 96.2617 208.091C98.5193 204.515 101.284 201.742 104.557 199.772C107.829 197.803 111.398 196.818 115.262 196.818ZM85.9434 200.091H62.8066L59.625 219.387H80.6025L80.1475 222.022H59.1709L55.5342 244H52.6934L60.4209 197.454H86.3975L85.9434 200.091ZM294.488 244H291.716L299.443 197.454H302.216L294.488 244ZM236.591 211.159C234.227 211.159 232.068 211.833 230.113 213.182C228.159 214.515 226.522 216.348 225.204 218.682C223.901 221 223.007 223.644 222.522 226.613C222.038 229.583 222.038 232.242 222.522 234.591C223.022 236.924 223.992 238.773 225.432 240.137C226.886 241.485 228.788 242.159 231.137 242.159C233.515 242.159 235.674 241.477 237.613 240.113C239.568 238.734 241.204 236.871 242.522 234.522C243.856 232.174 244.765 229.537 245.25 226.613C245.735 223.689 245.735 221.061 245.25 218.728C244.765 216.394 243.803 214.553 242.363 213.204C240.924 211.841 239 211.159 236.591 211.159ZM115.216 199.546C111.883 199.546 108.776 200.417 105.897 202.159C103.019 203.902 100.572 206.371 98.5566 209.568C96.5567 212.75 95.1858 216.508 94.4434 220.841C93.7161 225.174 93.7921 228.917 94.6709 232.068C95.5497 235.205 97.0947 237.629 99.3066 239.341C101.519 241.053 104.269 241.909 107.557 241.909C110.92 241.909 114.042 241.038 116.921 239.296C119.815 237.538 122.262 235.068 124.262 231.887C126.262 228.69 127.602 224.931 128.284 220.613C129.011 216.28 128.928 212.538 128.034 209.387C127.155 206.235 125.61 203.81 123.397 202.113C121.201 200.401 118.473 199.546 115.216 199.546ZM273.244 211.159C270.971 211.159 268.805 211.819 266.744 213.137C264.699 214.44 262.941 216.182 261.472 218.363C260.191 220.284 259.287 222.375 258.758 224.637H282.562C282.987 222.122 282.866 219.849 282.199 217.818C281.533 215.773 280.426 214.151 278.881 212.954C277.351 211.757 275.471 211.159 273.244 211.159Z" fill="#E0E0E0"/>
</svg>
